{"title":"Kara Sevda S01E16.DVB-T.X264.ARI Greek Subs","uid":15153813,"size":356846972,"categoryP":"video","categoryS":"tv_shows","magnet":"?xt=urn:btih:7a34b86feb1fb39ef70a01fdfbc81bc94a5d7802&amp;dn=Kara+Sevda+S01E16.DVB-T.X264.ARI+Greek+Subs&amp;tr=udp%3A%2F%2Ftracker.leechers-paradise.org%3A6969&amp;tr=udp%3A%2F%2Fzer0day.ch%3A1337&amp;tr=udp%3A%2F%2Fopen.demonii.com%3A1337&amp;tr=udp%3A%2F%2Ftracker.coppersurfer.tk%3A6969&amp;tr=udp%3A%2F%2Fexodus.desync.com%3A6969","seeders":1,"leechers":0,"uploader":"Aris2015","files":1,"time":1467275871,"description":"General\r\nComplete name               : Kara Sevda S01E16.DVB-T.X264.ARI.mp4\r\nFormat                      : MPEG-4\r\nFormat profile              : Base Media\r\nCodec ID                    : isom (isom/iso2/avc1/mp41)\r\nFile size                   : 340 MiB\r\nDuration                    : 41mn 58s\r\nOverall bit rate mode       : Variable\r\nOverall bit rate            : 1 134 Kbps\r\nMovie name                  : Kara Sevda S01E16.DVB-T.X264.ARI\r\nPerformer                   : ARI\r\nEncoded date                : UTC 2016-06-29 22:35:59\r\nTagged date                 : UTC 2016-06-29 22:35:59\r\nWriting application         : Lavf57.26.100\r\nCopyright                   : MEGA TV\r\n\r\nVideo\r\nID                          : 1\r\nFormat                      : AVC\r\nFormat/Info                 : Advanced Video Codec\r\nFormat profile              :   \r\nFormat settings, CABAC      : Yes\r\nFormat settings, ReFrames   : 8 frames\r\nCodec ID                    : avc1\r\nCodec ID/Info               : Advanced Video Coding\r\nDuration                    : 41mn 58s\r\nBit rate mode               : Variable\r\nBit rate                    : 1 000 Kbps\r\nMaximum bit rate            : 17.5 Mbps\r\nWidth                       : 720 pixels\r\nHeight                      : 576 pixels\r\nDisplay aspect ratio        : 16:9\r\nFrame rate mode             : Constant\r\nFrame rate                  : 25.000 fps\r\nStandard                    : PAL\r\nColor space                 : YUV\r\nChroma subsampling          : 4:2:0\r\nBit depth                   : 8 bits\r\nScan type                   : Progressive\r\nBits/(Pixel*Frame)          : 0.096\r\nStream size                 : 300 MiB (88%)\r\n\r\nAudio\r\nID                          : 2\r\nFormat                      : AAC\r\nFormat/Info                 : Advanced Audio Codec\r\nFormat profile              : LC\r\nCodec ID                    : 40\r\nDuration                    : 41mn 58s\r\nDuration_LastFrame          : -8ms\r\nBit rate mode               : Constant\r\nBit rate                    : 128 Kbps\r\nChannel(s)                  : 2 channels\r\nChannel positions           : Front: L R\r\nSampling rate               : 48.0 KHz\r\nFrame rate                  : 46.875 fps (1024 spf)\r\nCompression mode            : Lossy\r\nStream size                 : 38.4 MiB (11%)\r\nLanguage                    : Turkish\r\nDefault                     : Yes","torrent":{"xt":"urn:btih:7a34b86feb1fb39ef70a01fdfbc81bc94a5d7802","amp;dn":"Kara+Sevda+S01E16.DVB-T.X264.ARI+Greek+Subs","amp;tr":["udp%3A%2F%2Ftracker.leechers-paradise.org%3A6969","udp%3A%2F%2Fzer0day.ch%3A1337","udp%3A%2F%2Fopen.demonii.com%3A1337","udp%3A%2F%2Ftracker.coppersurfer.tk%3A6969","udp%3A%2F%2Fexodus.desync.com%3A6969"],"infoHash":"7a34b86feb1fb39ef70a01fdfbc81bc94a5d7802","infoHashBuffer":{"type":"Buffer","data":[122,52,184,111,235,31,179,158,247,10,1,253,251,200,27,201,74,93,120,2]},"announce":[],"urlList":[]}}